<svg xmlns="http://www.w3.org/2000/svg" width="84" height="30" viewBox="0 0 84 30">
    <g fill="none" fill-rule="evenodd">
        <path fill="#132240" d="M39.57 19.623c-.282.209-.629.365-1.04.47a5.262 5.262 0 0 1-1.299.156c-1.179 0-2.09-.3-2.735-.902-.645-.602-.967-1.486-.967-2.653v-4.07H32v-2.211h1.529V8.839L36.402 8v2.413h2.469v2.21h-2.469v4.034c0 .418.108.74.323.967.215.227.518.341.911.341.455 0 .842-.123 1.16-.368l.774 2.026zm5.205-8.123a3.195 3.195 0 0 1 1.39-1.087c.584-.246 1.256-.368 2.017-.368v2.652a10.37 10.37 0 0 0-.644-.037c-.823 0-1.468.23-1.934.69-.467.461-.7 1.152-.7 2.073v5.098H42.03v-10.33h2.745V11.5zm9.482-1.455c1.534 0 2.713.365 3.536 1.096.823.73 1.234 1.832 1.234 3.306v6.074h-2.69v-1.653c-.54.92-1.546 1.381-3.02 1.381-.761 0-1.421-.129-1.98-.387-.559-.258-.985-.614-1.28-1.068a2.78 2.78 0 0 1-.442-1.547c0-.921.347-1.646 1.04-2.174.694-.528 1.766-.792 3.215-.792h2.284c0-.626-.19-1.108-.571-1.446-.381-.338-.952-.506-1.713-.506-.528 0-1.047.083-1.557.248-.51.166-.942.39-1.298.673l-1.032-2.008c.54-.38 1.188-.676 1.943-.884a8.705 8.705 0 0 1 2.33-.313zm-.222 8.27c.492 0 .928-.114 1.308-.34.38-.228.651-.563.81-1.005v-1.013h-1.97c-1.179 0-1.768.387-1.768 1.16 0 .37.144.66.432.876.289.215.685.322 1.188.322zm17.297-8.123v12.143h-2.874v-3.283c-.712.798-1.7 1.197-2.965 1.197-.934 0-1.778-.209-2.533-.626a4.484 4.484 0 0 1-1.778-1.787c-.43-.774-.644-1.67-.644-2.69 0-1.018.215-1.915.644-2.688a4.484 4.484 0 0 1 1.778-1.787c.755-.418 1.6-.626 2.533-.626 1.35 0 2.382.43 3.094 1.289v-1.142h2.745zm-5.342 7.7c.724 0 1.326-.25 1.805-.747.479-.497.718-1.163.718-1.998s-.24-1.501-.718-1.999c-.479-.497-1.08-.746-1.805-.746-.737 0-1.345.249-1.824.746-.479.498-.718 1.164-.718 1.999 0 .835.24 1.501.718 1.998.48.498 1.087.746 1.824.746zm18.01-7.7v12.143h-2.873v-3.283c-.713.798-1.701 1.197-2.966 1.197-.933 0-1.778-.209-2.533-.626a4.484 4.484 0 0 1-1.777-1.787c-.43-.774-.645-1.67-.645-2.69 0-1.018.215-1.915.645-2.688a4.484 4.484 0 0 1 1.777-1.787c.755-.418 1.6-.626 2.533-.626 1.35 0 2.382.43 3.094 1.289v-1.142H84zm-5.342 7.7c.725 0 1.327-.25 1.805-.747.48-.497.719-1.163.719-1.998s-.24-1.501-.719-1.999c-.478-.497-1.08-.746-1.805-.746-.736 0-1.344.249-1.823.746-.48.498-.719 1.164-.719 1.999 0 .835.24 1.501.719 1.998.479.498 1.087.746 1.823.746z"/>
        <g fill-rule="nonzero">
            <path fill="#32CD95" d="M9 30a1.765 1.765 0 1 1 0-3.53c6.335 0 11.47-5.135 11.47-11.47C20.47 8.665 15.336 3.53 9 3.53A1.765 1.765 0 1 1 9 0c8.284 0 15 6.716 15 15 0 8.284-6.716 15-15 15z"/>
            <path fill="#FFD611" d="M3.706 15A5.294 5.294 0 1 0 9 9.706a1.765 1.765 0 1 1 0-3.53A8.824 8.824 0 1 1 .176 15a1.765 1.765 0 0 1 3.53 0z"/>
            <circle cx="9" cy="15" r="2.647" fill="#F44B5E"/>
        </g>
    </g>
</svg>
